<svg xmlns="http://www.w3.org/2000/svg" xmlns:xlink="http://www.w3.org/1999/xlink" viewBox="0 0 15.15 8.18"><defs><style>.a{fill:url(#a);}.b{fill:url(#b);}.c{fill:url(#c);}</style><linearGradient id="a" x1="0.43" y1="10" x2="12.05" y2="10" gradientTransform="matrix(1, 0, 0, -1, 0, 18)" gradientUnits="userSpaceOnUse"><stop offset="0" stop-color="#001338"/><stop offset="0.28" stop-color="#49669c"/><stop offset="0.46" stop-color="#7598d8"/><stop offset="0.79" stop-color="#90b6eb"/><stop offset="1" stop-color="#9dc4f4"/></linearGradient><linearGradient id="b" x1="8.3" y1="8.24" x2="15.57" y2="8.24" xlink:href="#a"/><linearGradient id="c" x1="14.66" y1="12.96" x2="15.27" y2="14.01" gradientTransform="matrix(1, 0, 0, -1, -0.43, 14.09)" gradientUnits="userSpaceOnUse"><stop offset="0" stop-color="#001338"/><stop offset="0.09" stop-color="#192f5a"/><stop offset="0.25" stop-color="#405c90"/><stop offset="0.39" stop-color="#5d7db7"/><stop offset="0.5" stop-color="#6f91cf"/><stop offset="0.57" stop-color="#7598d8"/><stop offset="0.83" stop-color="#90b6eb"/><stop offset="1" stop-color="#9dc4f4"/></linearGradient></defs><path class="a" d="M8.4,9.29l0-.11a2.14,2.14,0,0,0,.09-.34V8.79c0-.11,0-.23.05-.35s0,0,0,0,0-.24,0-.37V8a2.87,2.87,0,0,1,2.82-2.87h0a.61.61,0,0,0,0-1.22h-.06A4.08,4.08,0,0,0,8,5.86H8L7.92,6l0,.1c0,.09-.09.18-.13.27s0,.12-.07.17l-.06.15a1.21,1.21,0,0,0-.05.18c0,.09,0,.18-.08.27l0,.19,0,.16s0,.11,0,.17,0,.24,0,.36h0v.13a2.67,2.67,0,0,1-1.56,2.45A2.88,2.88,0,1,1,4.27,5.14h.05a.62.62,0,0,0,0-1.23H4.25a4.09,4.09,0,0,0,.27,8.17A4.08,4.08,0,0,0,8,10.14H8L8.07,10l.06-.1c0-.09.09-.19.13-.28l.06-.14Z" transform="translate(-0.43 -3.91)"/><path class="b" d="M15.57,8h0a.61.61,0,0,0-1.21-.09h0V8a0,0,0,0,1,0,0l0,.45a2.87,2.87,0,0,1-4.47,1.92l-.52-.47h0a.56.56,0,0,0-.49-.15.6.6,0,0,0-.51.51.58.58,0,0,0,.22.56,4,4,0,0,0,3.26,1.26A4.09,4.09,0,0,0,15,10.15h0a5.33,5.33,0,0,0,.61-2V8Z" transform="translate(-0.43 -3.91)"/><circle class="c" cx="14.54" cy="0.61" r="0.61"/></svg>